# xmcd
#
# Track frame offsets:
#	150
#	19965
#	35248
#	54913
#	87537
#	105236
#	134030
#	158998
#
# Disc length: 2434 seconds
#
# Revision: 1
# Processed by: cddbd v1.4b42PL0 Copyright (c) Steve Scherf et al.
# Submitted via: audiograbber 1.80
#
DISCID=6a098008
DTITLE=Kevin Borich - Celebration
DYEAR=1900
DGENRE=
TTITLE0=Snowball King
TTITLE1=Goin' Somewhere
TTITLE2=Mon Ami
TTITLE3=Celebration
TTITLE4=I Just Wanna Love You
TTITLE5=Rainbows
TTITLE6=Goin' Down Town
TTITLE7=Love My Love (Will Carry On)
EXTD=
EXTT0=
EXTT1=
EXTT2=
EXTT3=
EXTT4=
EXTT5=
EXTT6=
EXTT7=
PLAYORDER=
